# xmcd
#
# Track frame offsets:
#	150
#	15117
#	32197
#	52217
#	67527
#	82497
#	99582
#	119607
#
# Disc length: 1801 seconds
#
# Revision: 1
# Processed by: cddbd v1.5.2PL0 Copyright (c) Steve Scherf et al.
# Submitted via: audiograbber 1.83.01
#
DISCID=65070708
DTITLE=Reba McEntire - RCA543
DYEAR=1900
DGENRE=Karaoke
TTITLE0=It's Your Call (Vocals)
TTITLE1=For My Broken Heart (Vocals)
TTITLE2=She Thinks His Name Was John (Vocals)
TTITLE3=The Greatest Man I Never Knew (Vocals)
TTITLE4=It's Your Call
TTITLE5=For My Broken Heart
TTITLE6=She Thinks His Name Was John
TTITLE7=The Greatest Man I Never Knew
EXTD=
EXTT0=
EXTT1=
EXTT2=
EXTT3=
EXTT4=
EXTT5=
EXTT6=
EXTT7=
PLAYORDER=
